<svg xmlns="http://www.w3.org/2000/svg" viewBox="0 0 400 120" width="400" height="120">
  <!-- Gear -->
  <g transform="translate(60, 60)">
    <!-- Gear teeth (12 teeth) -->
    <g fill="#ffffff">
      <rect x="-5" y="-50" width="10" height="14" rx="2" transform="rotate(0)"/>
      <rect x="-5" y="-50" width="10" height="14" rx="2" transform="rotate(30)"/>
      <rect x="-5" y="-50" width="10" height="14" rx="2" transform="rotate(60)"/>
      <rect x="-5" y="-50" width="10" height="14" rx="2" transform="rotate(90)"/>
      <rect x="-5" y="-50" width="10" height="14" rx="2" transform="rotate(120)"/>
      <rect x="-5" y="-50" width="10" height="14" rx="2" transform="rotate(150)"/>
      <rect x="-5" y="-50" width="10" height="14" rx="2" transform="rotate(180)"/>
      <rect x="-5" y="-50" width="10" height="14" rx="2" transform="rotate(210)"/>
      <rect x="-5" y="-50" width="10" height="14" rx="2" transform="rotate(240)"/>
      <rect x="-5" y="-50" width="10" height="14" rx="2" transform="rotate(270)"/>
      <rect x="-5" y="-50" width="10" height="14" rx="2" transform="rotate(300)"/>
      <rect x="-5" y="-50" width="10" height="14" rx="2" transform="rotate(330)"/>
    </g>
    <!-- Gear body -->
    <circle cx="0" cy="0" r="40" fill="#ffffff"/>
    <!-- Axle hole -->
    <circle cx="0" cy="0" r="14" fill="#800000"/>
    <!-- Inner ring detail -->
    <circle cx="0" cy="0" r="26" fill="none" stroke="#800000" stroke-width="2" opacity="0.3"/>
  </g>

  <!-- Text, vertically centered with gear -->
  <text x="88" y="50" font-family="'Helvetica Neue', 'Helvetica', 'Arial', sans-serif" font-size="38" font-weight="700" fill="#ffffff" letter-spacing="3" stroke="#800000" stroke-width="12" paint-order="stroke">UCHICAGO</text>
  <text x="88" y="80" font-family="'Helvetica Neue', 'Helvetica', 'Arial', sans-serif" font-size="28" font-weight="400" fill="#ffffff" letter-spacing="5" stroke="#800000" stroke-width="9" paint-order="stroke">ENGINEERING</text>
</svg>
